<svg width="1024" height="1024" viewBox="0 0 1024 1024" fill="none" xmlns="http://www.w3.org/2000/svg">
<path d="M678.3 642.4C702.5 629.4 730.2 622 759.7 622H759.8C762.8 622 764.2 618.4 762 616.4C731.321 588.868 696.276 566.631 658.3 550.6C657.9 550.4 657.5 550.3 657.1 550.1C719.2 505 759.6 431.7 759.6 349C759.6 212 648.8 101 512.1 101C375.4 101 264.7 212 264.7 349C264.7 431.7 305.1 505 367.3 550.1C366.9 550.3 366.5 550.4 366.1 550.6C321.4 569.5 281.3 596.6 246.8 631.2C212.499 665.439 185.191 706.027 166.4 750.7C147.911 794.446 137.933 841.316 137 888.8C136.973 889.867 137.161 890.929 137.551 891.923C137.941 892.917 138.526 893.822 139.271 894.587C140.017 895.351 140.908 895.958 141.892 896.372C142.876 896.787 143.932 897 145 897H204.9C209.2 897 212.8 893.5 212.9 889.2C214.9 812 245.8 739.7 300.5 684.9C357 628.2 432.2 597 512.2 597C568.9 597 623.3 612.7 670.2 642.1C671.405 642.857 672.788 643.283 674.21 643.336C675.632 643.389 677.043 643.066 678.3 642.4V642.4ZM512.2 521C466.4 521 423.3 503.1 390.8 470.6C374.81 454.651 362.133 435.696 353.5 414.826C344.867 393.956 340.449 371.585 340.5 349C340.5 303.1 358.4 259.9 390.8 227.4C423.2 194.9 466.3 177 512.2 177C558.1 177 601.1 194.9 633.6 227.4C649.591 243.349 662.267 262.304 670.9 283.174C679.533 304.044 683.951 326.415 683.9 349C683.9 394.9 666 438.1 633.6 470.6C601.1 503.1 558 521 512.2 521ZM880 759H796V675C796 670.6 792.4 667 788 667H732C727.6 667 724 670.6 724 675V759H640C635.6 759 632 762.6 632 767V823C632 827.4 635.6 831 640 831H724V915C724 919.4 727.6 923 732 923H788C792.4 923 796 919.4 796 915V831H880C884.4 831 888 827.4 888 823V767C888 762.6 884.4 759 880 759Z" fill="white"/>
</svg>
