<svg width="64" height="64" viewBox="0 0 64 64" fill="none" xmlns="http://www.w3.org/2000/svg">
<path d="M10.643 35.727C10.6427 35.1704 10.7523 34.6191 10.9653 34.1049C11.1784 33.5906 11.4907 33.1234 11.8846 32.73C12.2784 32.3367 12.746 32.0248 13.2605 31.8124C13.775 31.6 14.3264 31.4911 14.883 31.492C15.4397 31.4912 15.9911 31.6002 16.5057 31.8126C17.0202 32.0251 17.4879 32.3369 17.8818 32.7302C18.2758 33.1235 18.5884 33.5907 18.8017 34.1049C19.015 34.6191 19.1249 35.1703 19.125 35.727C19.125 36.8518 18.6782 37.9305 17.8828 38.7258C17.0875 39.5212 16.0088 39.968 14.884 39.968C13.7592 39.968 12.6805 39.5212 11.8852 38.7258C11.0898 37.9305 10.643 36.8518 10.643 35.727V35.727ZM51.597 33.133C53.462 33.133 54.968 34.595 54.984 36.446L54.991 45.39H20.958V33.142L51.597 33.133V33.133ZM17.039 45.383C18.19 45.383 19.125 44.448 19.125 43.297C19.125 42.146 18.19 41.211 17.039 41.211H11.009C10.7351 41.2109 10.4639 41.2647 10.2109 41.3696C9.95784 41.4744 9.72796 41.6281 9.53439 41.8218C9.34082 42.0156 9.18736 42.2456 9.08279 42.4987C8.97823 42.7519 8.92461 43.0231 8.925 43.297C8.925 44.448 9.853 45.383 11.009 45.383H17.039Z" fill="white"/>
<path d="M57.009 54.179V63.506H62.532V33.928C62.5324 33.5659 62.4614 33.2073 62.3232 32.8726C62.1849 32.538 61.9821 32.2338 61.7262 31.9776C61.4703 31.7214 61.1665 31.5181 60.8321 31.3794C60.4976 31.2406 60.1391 31.1691 59.777 31.169C59.0441 31.1679 58.3408 31.458 57.8217 31.9754C57.3027 32.4928 57.0103 33.1951 57.009 33.928V47.503H7.42V28.348C7.42 26.825 6.092 25.586 4.565 25.586V25.588C3.043 25.588 1.844 26.825 1.844 28.347V63.505H7.419V54.178H57.009V54.179ZM39.508 0.14C41.275 0.14 44.169 0.883 45.779 2.645L43.609 6.813C43.1254 6.18554 42.5041 5.67761 41.793 5.3284C41.082 4.9792 40.3002 4.79807 39.508 4.799C37.859 4.799 36.392 5.569 35.443 6.772L33.23 2.737C35.093 0.873 37.669 0.139 39.508 0.139V0.14ZM38.883 4.34H40.121V3.101H41.36V1.865H40.121V0.627H38.883V1.865H37.646V3.101H38.883V4.34Z" fill="white"/>
<path d="M43.482 10.248C43.482 11.3042 43.0624 12.3172 42.3156 13.0641C41.5687 13.8109 40.5557 14.2305 39.4995 14.2305C38.4433 14.2305 37.4303 13.8109 36.6834 13.0641C35.9366 12.3172 35.517 11.3042 35.517 10.248C35.517 9.19178 35.9366 8.17881 36.6834 7.43195C37.4303 6.68509 38.4433 6.2655 39.4995 6.2655C40.5557 6.2655 41.5687 6.68509 42.3156 7.43195C43.0624 8.17881 43.482 9.19178 43.482 10.248V10.248ZM35.67 15.365C32.886 15.38 31.273 17.639 30.91 18.915L27.518 30.048H30.951L33.451 21.506H35.23L32.737 30.046H46.244L43.769 21.506H45.547L48.113 30.048H51.495L48.09 18.915C47.728 17.655 46.149 15.439 43.426 15.371L35.67 15.365ZM10.293 17.925C5.405 17.925 1.433 13.951 1.433 9.063C1.433 4.174 5.404 0.199001 10.293 0.199001C15.179 0.199001 19.157 4.175 19.157 9.063C19.157 13.951 15.178 17.925 10.293 17.925ZM10.29 15.731C13.968 15.731 16.962 12.74 16.962 9.061C16.962 5.386 13.969 2.39 10.29 2.39C6.614 2.39 3.625 5.385 3.625 9.061C3.625 12.741 6.614 15.731 10.29 15.731Z" fill="white"/>
<path d="M10.338 10.233C10.2361 10.2797 10.1241 10.2999 10.0123 10.2915C9.90054 10.2831 9.79274 10.2464 9.699 10.185C9.61965 10.1339 9.55216 10.0665 9.5011 9.98711C9.45004 9.90776 9.41659 9.81838 9.403 9.725L9.394 4.574C9.40068 4.4017 9.47382 4.23868 9.59808 4.11914C9.72234 3.9996 9.88807 3.93282 10.0605 3.93282C10.2329 3.93282 10.3987 3.9996 10.5229 4.11914C10.6472 4.23868 10.7203 4.4017 10.727 4.574V8.57L14.143 6.961C14.3011 6.89592 14.4782 6.89415 14.6376 6.95605C14.797 7.01795 14.9265 7.13879 14.9992 7.29353C15.072 7.44828 15.0824 7.62507 15.0284 7.7873C14.9744 7.94953 14.86 8.08477 14.709 8.165L10.337 10.232L10.338 10.233Z" fill="white"/>
</svg>
