<svg width="21" height="20" viewBox="0 0 21 20" fill="none" xmlns="http://www.w3.org/2000/svg">
<path d="M5.32 8.56L6.38 7.5L5.32 6.44L6.38 5.38L8.5 7.5L6.38 9.62L5.32 8.56V8.56ZM2.5 7C2.53 7 2.55 7.01 2.58 7.01C3.17649 5.53041 4.20162 4.26288 5.52376 3.37017C6.8459 2.47746 8.4047 2.00032 10 2C12.19 2 14.16 2.88 15.61 4.3C15.76 3.7 16.06 3.01 16.42 2.34C14.62 0.825513 12.3423 -0.00338506 9.99 -1.12395e-06C5.11 -1.12395e-06 1.05 3.51 0.18 8.14C0.74 7.44 1.59 7 2.5 7ZM19 8.5C18.58 8.5 18.18 8.41 17.81 8.28C17.93 8.83 18 9.41 18 10C18 14.42 14.42 18 10 18C6.64 18 3.77 15.93 2.58 12.99C2.55 12.99 2.53 13 2.5 13C1.98 13 1.46 12.86 1 12.6C0.68 12.42 0.41 12.18 0.18 11.9C1.07 16.51 5.11 20 9.98 20C15.52 20 20 15.52 20 10C20 9.45 19.94 8.91 19.86 8.38C19.5794 8.45554 19.2905 8.49585 19 8.5V8.5ZM19 0.999999C19 0.999999 17 3.9 17 5C17 6.1 17.9 7 19 7C20.1 7 21 6.1 21 5C21 3.9 19 0.999999 19 0.999999ZM13.62 5.38L11.5 7.5L13.62 9.62L14.68 8.56L13.62 7.5L14.68 6.44L13.62 5.38V5.38ZM6.56 15C7.25 13.81 8.53 13 10 13C11.47 13 12.75 13.81 13.44 15H15.12C14.32 12.95 12.33 11.5 10 11.5C9.13 11.5 8.3 11.7 7.57 12.07L3.99 10C3.99 9.48 3.73 8.98 3.25 8.71C2.53 8.3 1.62 8.54 1.2 9.26C0.79 9.98 1.03 10.89 1.75 11.31C2.23 11.59 2.8 11.56 3.24 11.31L6.21 13.03C5.64 13.56 5.18 14.24 4.88 15H6.56V15Z" fill="white"/>
</svg>
